<?xml version="1.0" standalone="no"?>
<!DOCTYPE svg PUBLIC "-//W3C//DTD SVG 20010904//EN"
 "http://www.w3.org/TR/2001/REC-SVG-20010904/DTD/svg10.dtd">
<svg version="1.0" xmlns="http://www.w3.org/2000/svg"
 width="512.000000pt" height="512.000000pt" viewBox="0 0 512.000000 512.000000"
 preserveAspectRatio="xMidYMid meet">

<g transform="translate(0.000000,512.000000) scale(0.100000,-0.100000)"
fill="#000000" stroke="none">
<path d="M3575 4630 c-115 -25 -198 -73 -277 -159 -29 -32 -114 -151 -188
-264 l-135 -207 -1035 0 c-1139 0 -1091 2 -1211 -61 -70 -38 -157 -126 -193
-197 -58 -114 -56 -73 -56 -1233 l0 -1067 -35 -6 c-43 -8 -94 -50 -111 -93
-20 -48 -19 -418 1 -496 45 -173 178 -307 350 -352 52 -13 260 -15 1706 -15
1053 0 1666 4 1700 10 176 33 333 185 373 360 12 50 16 122 16 262 0 167 -3
199 -19 234 -21 46 -64 81 -110 90 l-31 6 0 638 0 638 70 16 c107 24 176 62
256 141 152 151 194 353 112 544 -27 64 -652 1008 -701 1060 -53 55 -125 102
-202 130 -67 25 -212 36 -280 21z m168 -321 c22 -6 54 -25 72 -42 36 -34 629
-931 652 -984 16 -39 16 -56 3 -105 -14 -50 -55 -97 -105 -119 -37 -17 -81
-19 -685 -19 -604 0 -648 2 -685 19 -77 34 -123 116 -111 194 5 31 82 154 321
517 173 262 325 486 338 498 50 47 124 62 200 41z m-989 -641 c-5 -7 -38 -59
-75 -115 -37 -56 -77 -128 -89 -160 -27 -70 -37 -188 -21 -264 35 -168 167
-317 337 -381 58 -22 70 -23 577 -26 l517 -3 0 -639 0 -640 -1600 0 -1600 0 0
1054 c0 723 3 1064 11 1083 14 37 47 73 84 89 43 19 1870 21 1859 2z m-830
-2583 c8 -43 50 -94 93 -111 25 -11 110 -14 384 -14 305 0 356 2 386 16 41 20
81 69 89 112 l7 32 639 0 640 0 -3 -108 c-4 -100 -6 -112 -31 -144 -57 -74 91
-68 -1741 -66 -1644 3 -1646 3 -1673 24 -60 44 -69 67 -72 185 l-4 109 640 0
640 0 6 -35z"/>
<path d="M3615 4146 c-41 -18 -83 -69 -91 -110 -3 -19 -4 -84 -2 -144 3 -120
12 -142 72 -186 43 -32 132 -29 178 6 56 43 68 79 68 207 0 127 -15 172 -71
212 -38 27 -112 35 -154 15z"/>
<path d="M3615 3506 c-97 -43 -124 -171 -54 -251 94 -107 279 -38 279 104 0
43 -33 105 -71 132 -38 27 -112 35 -154 15z"/>
</g>
</svg>
