<svg width="129" height="60" viewBox="0 0 129 60" fill="none" xmlns="http://www.w3.org/2000/svg">
<path d="M20.6378 9.81818C20.4446 7.875 19.5866 6.32954 18.0639 5.18182C16.5412 4.03409 14.6264 3.46023 12.3196 3.46023C10.6946 3.46023 9.26278 3.73864 8.02415 4.29545C6.79688 4.85227 5.83097 5.625 5.12642 6.61364C4.43324 7.59091 4.08665 8.70455 4.08665 9.95455C4.08665 10.875 4.28551 11.6818 4.68324 12.375C5.08097 13.0682 5.61506 13.6648 6.28551 14.1648C6.96733 14.6534 7.71733 15.0739 8.53551 15.4261C9.36506 15.7784 10.2003 16.0739 11.0412 16.3125L14.723 17.3693C15.8366 17.6761 16.9503 18.0682 18.0639 18.5455C19.1776 19.0227 20.1946 19.625 21.1151 20.3523C22.0469 21.0682 22.7912 21.9489 23.348 22.9943C23.9162 24.0284 24.2003 25.2727 24.2003 26.7273C24.2003 28.5909 23.7173 30.267 22.7514 31.7557C21.7855 33.2443 20.3991 34.4261 18.5923 35.3011C16.7855 36.1648 14.6207 36.5966 12.098 36.5966C9.72301 36.5966 7.66051 36.2045 5.91051 35.4205C4.16051 34.625 2.78551 33.5284 1.78551 32.1307C0.785511 30.733 0.223011 29.1136 0.0980115 27.2727H3.37074C3.48438 28.6477 3.93892 29.8125 4.73438 30.767C5.52983 31.7216 6.56392 32.4489 7.83665 32.9489C9.10938 33.4375 10.5298 33.6818 12.098 33.6818C13.8366 33.6818 15.3821 33.392 16.7344 32.8125C18.098 32.2216 19.1662 31.4034 19.9389 30.358C20.723 29.3011 21.1151 28.0739 21.1151 26.6761C21.1151 25.4943 20.8082 24.5057 20.1946 23.7102C19.581 22.9034 18.723 22.2273 17.6207 21.6818C16.5298 21.1364 15.2628 20.6534 13.8196 20.233L9.64347 19.0057C6.90483 18.1875 4.77983 17.0568 3.26847 15.6136C1.7571 14.1705 1.00142 12.3295 1.00142 10.0909C1.00142 8.21591 1.50142 6.56818 2.50142 5.14773C3.51278 3.71591 4.87642 2.60227 6.59233 1.80682C8.3196 0.999998 10.2571 0.596589 12.4048 0.596589C14.5753 0.596589 16.4957 0.994317 18.1662 1.78977C19.8366 2.58523 21.1605 3.68182 22.1378 5.07954C23.1264 6.46591 23.6548 8.04545 23.723 9.81818H20.6378ZM31.8707 36V1.09091H35.0582V17.0966H54.8651V1.09091H58.0526V36H54.8651V19.9602H35.0582V36H31.8707ZM95.9276 18.5455C95.9276 22.1818 95.2798 25.3466 93.9844 28.0398C92.6889 30.7216 90.9048 32.8011 88.6321 34.2784C86.3707 35.7443 83.7685 36.4773 80.8253 36.4773C77.8821 36.4773 75.2741 35.7443 73.0014 34.2784C70.7401 32.8011 68.9616 30.7216 67.6662 28.0398C66.3821 25.3466 65.7401 22.1818 65.7401 18.5455C65.7401 14.9091 66.3821 11.75 67.6662 9.06818C68.9616 6.375 70.7457 4.29545 73.0185 2.82954C75.2912 1.35227 77.8935 0.613635 80.8253 0.613635C83.7685 0.613635 86.3707 1.35227 88.6321 2.82954C90.9048 4.29545 92.6889 6.375 93.9844 9.06818C95.2798 11.75 95.9276 14.9091 95.9276 18.5455ZM92.8253 18.5455C92.8253 15.4205 92.3026 12.7443 91.2571 10.517C90.2116 8.27841 88.7855 6.56818 86.9787 5.38636C85.1719 4.20454 83.1207 3.61364 80.8253 3.61364C78.5412 3.61364 76.4957 4.20454 74.6889 5.38636C72.8821 6.56818 71.4503 8.27273 70.3935 10.5C69.348 12.7273 68.8253 15.4091 68.8253 18.5455C68.8253 21.6705 69.348 24.3466 70.3935 26.5739C71.4389 28.8011 72.8651 30.5114 74.6719 31.7045C76.4787 32.8864 78.5298 33.4773 80.8253 33.4773C83.1207 33.4773 85.1719 32.8864 86.9787 31.7045C88.7969 30.5227 90.2287 28.8182 91.2741 26.5909C92.3196 24.3523 92.8366 21.6705 92.8253 18.5455ZM103.636 36V1.09091H114.903C117.381 1.09091 119.449 1.56818 121.108 2.52273C122.778 3.46591 124.034 4.75 124.875 6.375C125.727 8 126.153 9.82955 126.153 11.8636C126.153 13.8977 125.733 15.733 124.892 17.3693C124.051 18.9943 122.801 20.2841 121.142 21.2386C119.483 22.1818 117.42 22.6534 114.955 22.6534H106.091V19.7898H114.869C116.699 19.7898 118.216 19.4489 119.42 18.767C120.625 18.0739 121.523 17.1307 122.114 15.9375C122.716 14.7443 123.017 13.3864 123.017 11.8636C123.017 10.3409 122.716 8.98295 122.114 7.78977C121.523 6.59659 120.619 5.65909 119.403 4.97727C118.199 4.29545 116.67 3.95454 114.818 3.95454H106.824V36H103.636Z" fill="#929292"/>
<path d="M52.0415 60V45.4545H61.8427V47.9901H55.1168V51.456H61.3384V53.9915H55.1168V57.4645H61.8711V60H52.0415ZM67.1712 45.4545L70.1044 50.4119H70.218L73.1655 45.4545H76.6385L72.1996 52.7273L76.7379 60H73.201L70.218 55.0355H70.1044L67.1214 60H63.5987L68.1513 52.7273L63.6839 45.4545H67.1712ZM78.5845 60V45.4545H84.3232C85.4264 45.4545 86.3662 45.6652 87.1428 46.0866C87.9193 46.5033 88.5111 47.0833 88.9183 47.8267C89.3303 48.5653 89.5362 49.4176 89.5362 50.3835C89.5362 51.3494 89.3279 52.2017 88.9112 52.9403C88.4946 53.679 87.8909 54.2543 87.1001 54.6662C86.3142 55.0781 85.3625 55.2841 84.245 55.2841H80.5874V52.8196H83.7479C84.3397 52.8196 84.8274 52.7178 85.2109 52.5142C85.5992 52.3059 85.888 52.0194 86.0774 51.6548C86.2715 51.2855 86.3686 50.8617 86.3686 50.3835C86.3686 49.9006 86.2715 49.4792 86.0774 49.1193C85.888 48.7547 85.5992 48.473 85.2109 48.2741C84.8227 48.0705 84.3303 47.9688 83.7337 47.9688H81.6598V60H78.5845ZM91.5337 60V45.4545H101.335V47.9901H94.609V51.456H100.831V53.9915H94.609V57.4645H101.363V60H91.5337ZM103.78 60V45.4545H109.518C110.617 45.4545 111.554 45.651 112.331 46.044C113.112 46.4323 113.706 46.9839 114.114 47.6989C114.526 48.4091 114.732 49.2448 114.732 50.206C114.732 51.1719 114.523 52.0028 114.107 52.6989C113.69 53.3902 113.086 53.9205 112.295 54.2898C111.509 54.6591 110.558 54.8438 109.44 54.8438H105.598V52.3722H108.943C109.53 52.3722 110.018 52.2917 110.406 52.1307C110.795 51.9697 111.083 51.7282 111.273 51.4062C111.467 51.0843 111.564 50.6842 111.564 50.206C111.564 49.723 111.467 49.3158 111.273 48.9844C111.083 48.6529 110.792 48.402 110.399 48.2315C110.011 48.0563 109.521 47.9688 108.929 47.9688H106.855V60H103.78ZM111.635 53.3807L115.25 60H111.855L108.318 53.3807H111.635ZM116.351 47.9901V45.4545H128.297V47.9901H123.844V60H120.804V47.9901H116.351Z" fill="black"/>
</svg>
