<svg width="139" height="59" viewBox="0 0 139 59" fill="none" xmlns="http://www.w3.org/2000/svg">
<path d="M0.667614 0.0909081H4.34943L17.0142 30.5H17.321L29.9858 0.0909081H33.6676V35H30.6676V6.82386H30.3949L18.6165 35H15.7188L3.94034 6.82386H3.66761V35H0.667614V0.0909081ZM42.9489 35V0.0909081H63.1989V2.95454H46.1364V16.0966H62.125V18.9602H46.1364V32.1364H63.5398V35H42.9489ZM98.6364 0.0909081V35H95.5341L74.9091 5.76705H74.6364V35H71.4489V0.0909081H74.5341L95.2273 29.358H95.5V0.0909081H98.6364ZM131.185 0.0909081H134.372V23.2045C134.372 25.5795 133.815 27.7045 132.702 29.5795C131.588 31.4432 130.037 32.9148 128.048 33.9943C126.071 35.0625 123.77 35.5966 121.145 35.5966C118.531 35.5966 116.23 35.0568 114.241 33.9773C112.253 32.8977 110.702 31.4261 109.588 29.5625C108.474 27.6989 107.918 25.5795 107.918 23.2045V0.0909081H111.105V22.983C111.105 24.8352 111.52 26.4886 112.349 27.9432C113.179 29.3864 114.344 30.5227 115.844 31.3523C117.355 32.1818 119.122 32.5966 121.145 32.5966C123.168 32.5966 124.935 32.1818 126.446 31.3523C127.957 30.5227 129.122 29.3864 129.94 27.9432C130.77 26.4886 131.185 24.8352 131.185 22.983V0.0909081Z" fill="#929292"/>
<path d="M62.0415 59V44.4545H71.8427V46.9901H65.1168V50.456H71.3384V52.9915H65.1168V56.4645H71.8711V59H62.0415ZM77.1712 44.4545L80.1044 49.4119H80.218L83.1655 44.4545H86.6385L82.1996 51.7273L86.7379 59H83.201L80.218 54.0355H80.1044L77.1214 59H73.5987L78.1513 51.7273L73.6839 44.4545H77.1712ZM88.5845 59V44.4545H94.3232C95.4264 44.4545 96.3662 44.6652 97.1428 45.0866C97.9193 45.5033 98.5111 46.0833 98.9183 46.8267C99.3303 47.5653 99.5362 48.4176 99.5362 49.3835C99.5362 50.3494 99.3279 51.2017 98.9112 51.9403C98.4946 52.679 97.8909 53.2543 97.1001 53.6662C96.3142 54.0781 95.3625 54.2841 94.245 54.2841H90.5874V51.8196H93.7479C94.3397 51.8196 94.8274 51.7178 95.2109 51.5142C95.5992 51.3059 95.888 51.0194 96.0774 50.6548C96.2715 50.2855 96.3686 49.8617 96.3686 49.3835C96.3686 48.9006 96.2715 48.4792 96.0774 48.1193C95.888 47.7547 95.5992 47.473 95.2109 47.2741C94.8227 47.0705 94.3303 46.9688 93.7337 46.9688H91.6598V59H88.5845ZM101.534 59V44.4545H111.335V46.9901H104.609V50.456H110.831V52.9915H104.609V56.4645H111.363V59H101.534ZM113.78 59V44.4545H119.518C120.617 44.4545 121.554 44.651 122.331 45.044C123.112 45.4323 123.706 45.9839 124.114 46.6989C124.526 47.4091 124.732 48.2448 124.732 49.206C124.732 50.1719 124.523 51.0028 124.107 51.6989C123.69 52.3902 123.086 52.9205 122.295 53.2898C121.509 53.6591 120.558 53.8438 119.44 53.8438H115.598V51.3722H118.943C119.53 51.3722 120.018 51.2917 120.406 51.1307C120.795 50.9697 121.083 50.7282 121.273 50.4062C121.467 50.0843 121.564 49.6842 121.564 49.206C121.564 48.723 121.467 48.3158 121.273 47.9844C121.083 47.6529 120.792 47.402 120.399 47.2315C120.011 47.0563 119.521 46.9688 118.929 46.9688H116.855V59H113.78ZM121.635 52.3807L125.25 59H121.855L118.318 52.3807H121.635ZM126.351 46.9901V44.4545H138.297V46.9901H133.844V59H130.804V46.9901H126.351Z" fill="black"/>
</svg>
