<?xml version="1.0" standalone="no"?>
<!DOCTYPE svg PUBLIC "-//W3C//DTD SVG 20010904//EN"
 "http://www.w3.org/TR/2001/REC-SVG-20010904/DTD/svg10.dtd">
<svg version="1.0" xmlns="http://www.w3.org/2000/svg"
 width="512.000000pt" height="512.000000pt" viewBox="0 0 512.000000 512.000000"
 preserveAspectRatio="xMidYMid meet">

<g transform="translate(0.000000,512.000000) scale(0.100000,-0.100000)"
fill="#000000" stroke="none">
<path d="M885 5031 c-90 -22 -172 -90 -215 -176 l-25 -50 0 -2085 0 -2085 23
-45 c12 -25 35 -62 51 -81 37 -44 131 -95 193 -104 46 -7 46 -7 53 -53 15
-101 73 -182 167 -233 l63 -34 1525 0 1525 0 63 34 c70 38 100 69 140 145 l27
51 0 2085 0 2085 -34 63 c-51 94 -132 152 -233 167 -46 7 -46 7 -53 53 -9 62
-60 156 -104 193 -19 16 -56 39 -81 51 l-45 23 -1505 2 c-828 0 -1518 -2
-1535 -6z m3041 -177 c15 -11 37 -33 48 -48 l21 -27 0 -2059 0 -2059 -21 -27
c-11 -15 -33 -37 -48 -48 -27 -21 -28 -21 -1526 -21 -1498 0 -1499 0 -1526 21
-15 11 -37 33 -48 48 l-21 27 -3 2032 c-1 1118 0 2046 3 2064 7 40 49 91 90
109 25 11 296 13 1517 11 1484 -2 1487 -2 1514 -23z m323 -322 c14 -10 34 -31
45 -46 l21 -27 0 -2059 0 -2059 -21 -27 c-11 -15 -33 -37 -48 -48 -27 -21 -28
-21 -1526 -21 -1498 0 -1499 0 -1526 21 -39 28 -63 63 -70 101 l-6 33 1403 2
1404 3 63 34 c70 38 100 69 140 145 l27 51 3 1964 2 1963 33 -6 c17 -3 43 -14
56 -24z"/>
<path d="M985 4695 c-25 -24 -25 -26 -25 -215 0 -189 0 -191 25 -215 l24 -25
271 0 271 0 24 25 c25 24 25 26 25 215 0 189 0 191 -25 215 l-24 25 -271 0
-271 0 -24 -25z m455 -215 l0 -80 -160 0 -160 0 0 80 0 80 160 0 160 0 0 -80z"/>
<path d="M1760 4640 l0 -80 680 0 680 0 0 80 0 80 -680 0 -680 0 0 -80z"/>
<path d="M1760 4320 l0 -80 880 0 880 0 0 80 0 80 -880 0 -880 0 0 -80z"/>
<path d="M3680 4320 l0 -80 80 0 80 0 0 80 0 80 -80 0 -80 0 0 -80z"/>
<path d="M985 3895 c-25 -24 -25 -26 -25 -215 0 -189 0 -191 25 -215 l24 -25
271 0 271 0 24 25 c25 24 25 26 25 215 0 189 0 191 -25 215 l-24 25 -271 0
-271 0 -24 -25z m455 -215 l0 -80 -160 0 -160 0 0 80 0 80 160 0 160 0 0 -80z"/>
<path d="M1760 3840 l0 -80 680 0 680 0 0 80 0 80 -680 0 -680 0 0 -80z"/>
<path d="M1760 3520 l0 -80 880 0 880 0 0 80 0 80 -880 0 -880 0 0 -80z"/>
<path d="M3680 3520 l0 -80 80 0 80 0 0 80 0 80 -80 0 -80 0 0 -80z"/>
<path d="M2220 3105 c-252 -43 -500 -180 -660 -365 -391 -455 -369 -1111 50
-1530 422 -422 1081 -440 1537 -43 132 115 260 311 316 484 169 518 -61 1086
-541 1337 -220 115 -471 156 -702 117z m415 -175 c181 -49 304 -120 440 -255
136 -136 206 -257 257 -445 32 -118 32 -336 0 -458 -46 -177 -128 -320 -256
-448 -128 -128 -271 -210 -448 -256 -122 -32 -340 -32 -458 0 -188 51 -309
121 -445 257 -136 137 -206 259 -256 445 -30 110 -33 337 -6 444 45 179 128
327 257 457 147 150 308 236 513 275 101 19 298 11 402 -16z"/>
<path d="M2007 2546 c-128 -46 -195 -186 -152 -316 14 -42 36 -73 103 -142
l85 -88 -85 -88 c-116 -120 -140 -194 -101 -307 31 -92 134 -165 233 -165 75
0 129 29 222 118 l88 85 88 -85 c93 -89 147 -118 222 -118 99 0 202 73 233
165 39 113 15 187 -101 307 l-85 88 85 88 c89 93 118 147 118 222 0 99 -73
202 -165 233 -113 39 -187 15 -307 -101 l-88 -85 -88 85 c-117 113 -200 141
-305 104z m238 -266 c106 -104 127 -120 155 -120 28 0 49 16 155 120 105 103
127 120 155 120 43 0 90 -47 90 -90 0 -28 -17 -50 -120 -155 -104 -106 -120
-127 -120 -155 0 -28 16 -49 120 -155 103 -105 120 -127 120 -155 0 -43 -47
-90 -90 -90 -28 0 -50 17 -155 120 -106 104 -127 120 -155 120 -28 0 -49 -16
-155 -120 -105 -103 -127 -120 -155 -120 -43 0 -90 47 -90 90 0 28 17 50 120
155 104 106 120 127 120 155 0 28 -16 49 -120 155 -103 105 -120 127 -120 155
0 22 9 41 29 61 20 20 39 29 61 29 28 0 50 -17 155 -120z"/>
</g>
</svg>
