<?xml version="1.0" standalone="no"?>
<!DOCTYPE svg PUBLIC "-//W3C//DTD SVG 20010904//EN"
 "http://www.w3.org/TR/2001/REC-SVG-20010904/DTD/svg10.dtd">
<svg version="1.0" xmlns="http://www.w3.org/2000/svg"
 width="512.000000pt" height="512.000000pt" viewBox="0 0 512.000000 512.000000"
 preserveAspectRatio="xMidYMid meet">

<g transform="translate(0.000000,512.000000) scale(0.100000,-0.100000)"
fill="#000000" stroke="none">
<path d="M375 4906 c-162 -41 -291 -175 -325 -341 -7 -33 -10 -233 -8 -573 l3
-522 33 -32 c28 -28 39 -33 82 -33 43 0 54 5 82 33 l33 32 5 538 5 537 24 38
c13 21 42 50 64 65 l41 27 538 5 538 5 32 33 c28 28 33 39 33 82 0 43 -5 54
-33 82 l-32 33 -533 2 c-398 1 -545 -2 -582 -11z"/>
<path d="M3635 4910 c-44 -18 -70 -59 -70 -111 0 -42 5 -53 33 -81 l32 -33
538 -5 537 -5 38 -24 c21 -13 50 -42 65 -64 l27 -41 5 -538 5 -538 33 -32 c28
-28 39 -33 82 -33 43 0 54 5 82 33 l33 32 3 522 c2 340 -1 540 -8 573 -26 124
-116 247 -220 300 -106 54 -123 55 -680 54 -283 0 -524 -4 -535 -9z"/>
<path d="M915 4271 c-11 -5 -31 -21 -45 -36 l-25 -27 0 -689 0 -689 33 -32 32
-33 690 0 690 0 32 33 33 32 0 690 0 690 -33 32 -32 33 -678 2 c-372 1 -686
-2 -697 -6z m1205 -751 l0 -520 -520 0 -520 0 0 520 0 520 520 0 520 0 0 -520z"/>
<path d="M1544 3624 c-39 -19 -64 -62 -64 -109 0 -29 8 -45 33 -70 56 -56 111
-58 167 -7 102 91 -12 247 -136 186z"/>
<path d="M2835 4271 c-11 -5 -31 -21 -45 -36 l-25 -27 0 -689 0 -689 33 -32
32 -33 690 0 690 0 32 33 33 32 0 690 0 690 -33 32 -32 33 -678 2 c-372 1
-686 -2 -697 -6z m1205 -751 l0 -520 -520 0 -520 0 0 520 0 520 520 0 520 0 0
-520z"/>
<path d="M3464 3621 c-44 -27 -64 -59 -64 -101 2 -126 171 -167 225 -54 50
105 -65 216 -161 155z"/>
<path d="M915 2351 c-11 -5 -31 -21 -45 -36 l-25 -27 0 -689 0 -689 33 -32 32
-33 690 0 690 0 32 33 33 32 0 690 0 690 -33 32 -32 33 -678 2 c-372 1 -686
-2 -697 -6z m1205 -751 l0 -520 -520 0 -520 0 0 520 0 520 520 0 520 0 0 -520z"/>
<path d="M1554 1706 c-93 -41 -100 -167 -10 -210 43 -20 69 -20 111 0 63 29
83 126 38 177 -19 21 -73 47 -95 47 -7 -1 -27 -7 -44 -14z"/>
<path d="M2835 2351 c-45 -20 -70 -60 -70 -112 l0 -49 295 -295 295 -295 -295
-295 -295 -295 0 -50 c0 -43 5 -54 33 -82 28 -28 39 -33 82 -33 l50 0 295 295
295 295 295 -295 295 -295 50 0 c43 0 54 5 82 33 28 28 33 39 33 82 l0 50
-295 295 -295 295 295 295 295 295 0 50 c0 43 -5 54 -33 82 -28 28 -39 33 -82
33 l-50 0 -295 -295 -295 -295 -293 293 c-272 271 -297 294 -333 298 -21 2
-48 0 -59 -5z"/>
<path d="M115 1711 c-11 -5 -31 -21 -45 -36 l-25 -27 -3 -521 c-2 -339 1 -539
8 -572 36 -172 173 -309 345 -345 33 -7 233 -10 573 -8 l522 3 32 33 c28 28
33 39 33 82 0 43 -5 54 -33 82 l-32 33 -538 5 -538 5 -41 27 c-22 15 -51 44
-64 65 l-24 38 -5 537 -5 538 -31 31 c-33 33 -92 46 -129 30z"/>
<path d="M4915 1711 c-11 -5 -31 -21 -45 -36 l-25 -27 -5 -536 -5 -537 -24
-38 c-13 -21 -42 -50 -64 -65 l-41 -27 -538 -5 -538 -5 -32 -33 c-28 -28 -33
-39 -33 -82 0 -43 5 -54 33 -82 l32 -33 522 -3 c340 -2 540 1 573 8 172 36
309 173 345 345 7 33 10 233 8 573 l-3 522 -31 31 c-33 33 -92 46 -129 30z"/>
</g>
</svg>
